<?xml version="1.0" standalone="no"?>
<!DOCTYPE svg PUBLIC "-//W3C//DTD SVG 20010904//EN"
 "http://www.w3.org/TR/2001/REC-SVG-20010904/DTD/svg10.dtd">
<svg version="1.0" xmlns="http://www.w3.org/2000/svg"
 width="256.000000pt" height="256.000000pt" viewBox="0 0 256.000000 256.000000"
 preserveAspectRatio="xMidYMid meet">

<g transform="translate(0.000000,256.000000) scale(0.100000,-0.100000)"
fill="#000000" stroke="none">
<path d="M740 2442 c0 -4 27 -34 60 -67 33 -33 60 -62 60 -66 0 -8 -155 -67
-270 -104 -51 -16 -120 -29 -172 -32 -77 -5 -86 -8 -75 -21 20 -24 128 -71
180 -78 26 -4 47 -10 47 -14 0 -4 -25 -33 -56 -66 -72 -76 -169 -205 -199
-264 -29 -58 -55 -120 -50 -120 2 0 21 15 41 33 37 31 37 31 31 7 -4 -14 -17
-63 -28 -109 -33 -136 -100 -251 -197 -338 -26 -22 -44 -44 -41 -47 8 -8 112
29 167 59 24 14 46 25 47 25 1 0 5 -24 8 -52 3 -29 14 -80 25 -113 l19 -59 15
29 c9 17 24 56 34 88 10 31 21 57 25 57 4 0 11 -14 14 -31 4 -18 22 -68 40
-113 18 -45 32 -82 31 -83 -1 -2 -25 6 -53 17 -89 33 -219 53 -313 46 -107 -7
-130 -14 -130 -37 0 -16 5 -17 33 -11 17 4 84 7 147 7 171 -1 336 -53 367
-115 13 -27 2 -54 -42 -104 -33 -36 -45 -26 -60 51 -8 40 -17 59 -28 61 -13 3
-17 -4 -17 -25 0 -39 27 -129 53 -176 l21 -37 -90 -83 c-49 -46 -110 -102
-136 -126 l-48 -43 -19 45 c-32 74 -41 118 -41 197 0 51 -6 88 -19 115 -17 39
-91 115 -111 115 -21 0 -9 -39 18 -60 52 -41 72 -87 72 -170 0 -81 15 -147 49
-225 l22 -49 -86 -86 c-68 -69 -85 -91 -85 -115 0 -28 13 -17 173 140 94 94
206 202 247 242 l75 72 73 -70 74 -69 -140 -147 c-77 -82 -173 -186 -215 -233
-73 -82 -75 -85 -49 -88 19 -3 33 4 51 25 13 15 41 48 62 72 l39 44 57 -26
c32 -14 101 -38 153 -53 52 -15 114 -35 138 -45 24 -11 60 -19 80 -19 l37 1
-40 25 c-22 13 -105 45 -185 71 -80 25 -159 53 -177 61 l-32 15 36 41 c20 23
78 85 129 138 l93 97 74 -34 c101 -47 168 -61 183 -41 9 13 17 14 42 5 27 -9
33 -18 43 -62 6 -31 10 -107 8 -185 -4 -117 -2 -132 12 -132 19 0 29 28 29 88
0 39 1 41 20 30 17 -11 26 -5 90 64 82 89 170 151 243 172 29 9 99 23 157 32
58 9 132 24 164 35 33 10 62 16 64 14 3 -2 -19 -34 -48 -70 -28 -36 -50 -70
-48 -75 8 -26 235 167 353 300 34 39 49 51 53 40 6 -20 147 -160 161 -160 15
0 14 18 -4 87 -8 31 -15 86 -15 121 0 58 27 262 36 271 2 2 34 -19 71 -46 68
-50 103 -69 103 -56 0 4 -18 43 -39 88 -22 44 -49 114 -60 156 -19 67 -20 82
-9 135 7 32 12 127 12 209 0 164 -11 226 -64 364 -80 206 -272 412 -485 519
-177 89 -443 127 -635 92 -41 -8 -131 -14 -200 -15 -116 0 -129 2 -184 28 -65
30 -66 30 -66 19z m893 -85 c459 -121 760 -559 707 -1034 -34 -313 -136 -534
-345 -750 l-115 -118 50 95 c48 92 60 130 41 130 -5 0 -31 -39 -58 -87 -44
-79 -52 -88 -99 -109 -121 -54 -482 -104 -689 -96 -58 2 -53 11 32 46 72 30
229 119 258 146 14 13 52 24 122 34 155 23 293 74 400 147 53 37 66 37 52 2
-6 -17 -6 -30 0 -36 17 -17 101 187 140 341 31 120 60 295 72 431 13 146 5
291 -17 291 -17 0 -15 13 -19 -150 -4 -212 -45 -462 -106 -655 -30 -94 -35
-103 -86 -147 -102 -87 -282 -163 -447 -188 -113 -17 -224 4 -125 24 53 10
190 76 254 121 89 63 255 240 323 343 58 88 97 176 86 193 -12 20 -25 6 -53
-54 -36 -81 -81 -147 -167 -249 -82 -95 -228 -224 -232 -204 -6 25 104 276
126 290 5 3 17 -3 27 -14 20 -22 45 -27 45 -8 0 6 -10 22 -22 35 -18 20 -20
27 -11 42 15 24 6 33 -18 21 -41 -22 -26 12 30 72 63 65 89 104 78 115 -4 3
-40 -29 -81 -73 l-74 -79 -67 65 -66 65 164 160 c164 161 294 302 349 383 23
34 27 46 18 55 -9 9 -18 4 -38 -23 -118 -153 -320 -361 -460 -474 -67 -54 -75
-58 -98 -47 -34 15 -50 4 -29 -19 15 -17 14 -19 -14 -39 -35 -25 -231 -121
-246 -120 -5 0 -41 29 -79 64 l-68 63 60 31 c33 17 100 60 148 96 86 65 104
73 86 38 -30 -58 -39 -193 -12 -193 5 0 38 60 74 133 78 160 184 321 349 528
68 86 127 164 130 173 13 32 -16 26 -71 -16 -139 -105 -319 -314 -396 -458
-33 -62 -120 -139 -268 -237 l-67 -45 -25 19 c-20 14 -25 24 -20 43 7 35 59
145 86 182 l22 31 32 -39 c26 -30 36 -36 45 -27 9 9 4 21 -21 53 -40 50 -38
55 64 168 149 164 337 312 480 378 40 18 55 29 47 37 -21 21 -139 -39 -295
-151 -44 -31 -129 -107 -190 -167 -61 -61 -128 -124 -149 -139 l-38 -29 -30
30 -30 30 102 92 c140 126 254 209 379 278 79 44 99 59 82 61 -54 8 -291 -138
-442 -272 -47 -42 -101 -87 -121 -101 l-37 -26 -36 25 -37 25 98 73 c54 40
131 92 171 116 39 24 72 47 72 52 0 49 -226 -92 -402 -252 -97 -88 -255 -264
-304 -338 -15 -22 -28 -39 -30 -37 -2 2 3 30 12 63 34 132 135 325 223 426 39
44 66 61 180 116 150 72 323 132 455 159 54 11 91 23 94 32 11 34 -234 -20
-410 -90 -211 -84 -496 -244 -558 -314 -33 -37 -13 -30 89 34 45 27 81 48 81
46 0 -2 -20 -35 -44 -72 -70 -110 -134 -252 -151 -343 -5 -22 -26 -54 -57 -87
-56 -60 -87 -122 -88 -172 0 -19 -14 -70 -32 -113 -43 -106 -53 -87 -53 107 1
122 5 167 23 239 36 142 64 194 137 257 35 29 61 57 59 61 -8 13 -45 -11 -122
-80 -40 -35 -75 -63 -77 -60 -2 2 26 44 62 93 77 104 268 297 363 369 86 65
246 141 362 172 84 22 107 24 248 20 125 -3 174 -9 253 -29z m-665 -12 c1 -1
-11 -8 -28 -15 -29 -12 -33 -11 -53 9 l-22 22 50 -7 c28 -3 51 -8 53 -9z
m-230 -133 c-1 -4 -31 -33 -64 -64 l-61 -56 -53 10 c-29 5 -64 14 -79 20 -24
9 -18 12 64 33 50 13 113 32 140 43 28 11 52 20 53 21 2 1 2 -3 0 -7z m899
-347 c-51 -69 -120 -171 -154 -227 -35 -56 -63 -99 -63 -95 0 19 93 189 138
252 45 63 158 195 168 195 2 0 -38 -56 -89 -125z m-625 -15 c4 0 8 -4 8 -8 0
-10 -200 -116 -207 -109 -3 3 30 39 72 81 77 74 78 74 98 55 11 -10 24 -19 29
-19z m40 -174 c-37 -39 -69 -72 -72 -74 -3 -1 -11 7 -18 19 -15 23 -10 34 61
127 l40 53 28 -27 29 -28 -68 -70z m-97 39 c-41 -69 -41 -73 -15 -128 l20 -42
-25 27 c-14 15 -41 30 -61 34 -42 8 -124 -2 -138 -16 -13 -13 -17 -90 -5 -90
5 0 9 4 9 9 0 5 12 23 26 40 21 25 33 31 66 31 50 0 74 -13 93 -50 20 -39 19
-40 -14 -34 -36 7 -79 -14 -119 -61 -35 -40 -47 -73 -38 -109 8 -33 42 -39 93
-16 39 17 42 21 37 48 -4 20 -1 34 11 46 23 22 39 16 43 -17 3 -25 22 -39 22
-17 0 6 7 10 15 10 19 0 20 41 1 104 l-15 48 86 89 c48 49 88 87 90 85 2 -1
-14 -34 -36 -71 -22 -37 -45 -89 -52 -116 -10 -38 -15 -46 -26 -37 -10 8 -13
6 -13 -10 0 -28 10 -53 20 -47 4 2 15 -4 25 -15 18 -20 18 -21 -1 -34 -18 -14
-18 -15 1 -36 11 -12 51 -49 88 -83 l68 -60 62 17 c34 10 95 35 135 56 39 22
72 36 72 32 0 -3 -28 -35 -62 -70 l-63 -64 98 -94 c55 -52 104 -94 109 -94 6
0 26 11 44 25 18 14 35 25 38 25 3 0 -10 -37 -29 -82 -19 -46 -39 -102 -45
-126 -9 -36 -17 -45 -58 -66 -54 -27 -174 -66 -206 -66 -11 0 -28 -4 -36 -10
-12 -7 -12 -12 4 -29 19 -21 19 -21 -7 -21 -15 0 -27 -4 -27 -10 0 -5 14 -10
30 -10 17 0 30 5 30 10 0 13 18 12 54 -3 l29 -13 -65 -42 c-63 -41 -66 -42
-151 -42 -66 0 -101 6 -154 25 -164 59 -314 149 -364 218 -45 62 -122 211
-163 313 -42 107 -56 217 -36 280 13 39 69 123 83 124 4 0 7 -20 7 -44 0 -35
-4 -45 -20 -49 -11 -3 -20 -10 -20 -17 0 -16 51 -8 61 10 4 8 23 45 41 82 18
37 58 98 88 136 46 59 63 72 105 86 27 9 82 33 120 54 39 21 71 37 73 36 1 0
-13 -27 -33 -59z m-675 -404 c0 -22 -8 -34 -32 -49 -18 -12 -34 -19 -36 -18
-3 4 59 96 65 96 2 0 3 -13 3 -29z m1325 -176 c-42 -36 -81 -65 -88 -65 -6 0
-35 23 -64 52 l-53 52 77 79 78 78 64 -66 63 -65 -77 -65z m110 16 c0 -14
-135 -131 -152 -131 -29 0 -19 21 30 58 29 23 63 53 77 67 24 26 45 29 45 6z
m643 -143 c10 -32 17 -58 14 -58 -13 0 -62 43 -62 55 0 18 19 69 24 64 2 -2
13 -30 24 -61z m-133 -317 c0 -143 -1 -144 -56 -65 l-29 42 43 76 c23 41 42
76 42 76 0 0 0 -58 0 -129z m-1570 22 c22 -24 77 -65 122 -92 l82 -49 -60 -52
-61 -53 -33 17 c-72 39 -214 178 -215 209 0 5 18 29 40 54 22 25 40 51 41 57
0 6 10 -2 22 -19 12 -16 40 -49 62 -72z m277 -190 c61 -67 73 -103 34 -103
-14 0 -28 -5 -31 -10 -9 -15 -155 24 -155 41 0 12 99 99 113 99 7 0 25 -12 39
-27z m171 -30 c31 -3 57 -9 57 -13 0 -4 -19 -14 -42 -23 -82 -30 -82 -30 -98
6 -7 17 -16 36 -18 41 -3 5 6 6 19 2 13 -4 50 -10 82 -13z m64 -147 c2 -1 -19
-44 -45 -95 l-47 -93 -6 83 c-4 46 -10 91 -13 100 -6 14 1 15 51 11 32 -2 59
-5 60 -6z m143 0 c0 -2 -17 -15 -38 -29 -21 -13 -60 -47 -87 -73 -53 -53 -53
-41 -3 43 18 30 41 54 52 56 29 6 76 8 76 3z"/>
<path d="M563 1333 c-7 -2 -13 -9 -13 -15 0 -12 41 -6 41 7 1 12 -11 15 -28 8z"/>
<path d="M602 1273 c-15 -6 -6 -23 12 -23 7 0 21 7 32 15 18 14 18 14 -6 14
-14 0 -31 -3 -38 -6z"/>
<path d="M1240 1176 c0 -2 13 -6 29 -8 17 -2 28 -1 25 4 -5 8 -54 12 -54 4z"/>
<path d="M827 1156 c-12 -9 -14 -16 -7 -21 12 -7 40 11 40 26 0 13 -12 11 -33
-5z"/>
<path d="M1208 1118 c-21 -26 -17 -33 10 -19 29 16 47 14 103 -10 48 -21 68
-42 30 -32 -27 7 -96 -32 -126 -71 -36 -48 -43 -96 -16 -120 18 -17 26 -18 59
-8 38 11 87 52 64 52 -7 0 -12 11 -12 25 0 31 34 52 56 34 11 -9 14 -8 14 9 0
34 17 34 24 1 15 -75 8 -107 -29 -136 -40 -32 -45 -48 -12 -39 12 4 31 8 42 9
18 2 20 10 23 97 3 126 -10 153 -97 198 -75 37 -109 40 -133 10z"/>
<path d="M676 971 c-8 -13 11 -61 24 -61 11 0 13 30 4 54 -7 18 -20 21 -28 7z"/>
<path d="M829 790 c27 -23 61 -26 61 -6 0 14 -30 26 -65 26 -19 -1 -19 -2 4
-20z"/>
<path d="M1153 743 c-7 -2 -13 -9 -13 -14 0 -15 53 -6 58 9 4 12 -21 15 -45 5z"/>
<path d="M1190 680 c0 -5 14 -10 30 -10 17 0 30 5 30 10 0 6 -13 10 -30 10
-16 0 -30 -4 -30 -10z"/>
<path d="M435 509 c-51 -29 -60 -85 -20 -124 69 -70 180 29 118 104 -22 25
-71 35 -98 20z m63 -38 c8 -5 12 -21 10 -37 -2 -24 -8 -29 -35 -32 -28 -3 -33
1 -39 23 -10 42 27 70 64 46z"/>
</g>
</svg>
